# xmcd CD database file
#
# Track frame offsets:
#	150
#	5485
#	25958
#	47506
#	59774
#	78019
#	94894
#	110742
#	130762
#	152475
#	161237
#	186151
#	204738
#	228934
#	238636
#	261082
#
# Disc length: 3841 seconds
#
# Revision: 0
# Processed by: cddbd v1.5.1PL0 Copyright (c) Steve Scherf et al.
# Submitted via: CDex 1.51
#
DISCID=d20eff10
DTITLE=岩垂徳行 - RADIATA STORIES Arrange Album
DYEAR=2005
DGENRE=Game
TTITLE0=Introduction 〜Legendary Sword〜
TTITLE1=Sign 〜Diffuse World〜
TTITLE2=HOPPING SUN
TTITLE3=GENUINE GIRL for Piano
TTITLE4=はなうさぎ 〜そうかもね・・・〜
TTITLE5=Song of Freedom Fighters
TTITLE6=Wind 〜緋色の風〜
TTITLE7=TALKING 〜Perpetual Unsteadiness〜
TTITLE8=ガンツのテーマ 〜Teach Me Please〜
TTITLE9=ふわふわぽわぽわ for Piano
TTITLE10=きらきらの未来 〜Itinerant Party〜
TTITLE11=Men's Dirge
TTITLE12=CALM 〜Unknown and Unnamed Spot〜
TTITLE13=Legendary Sword for Piano
TTITLE14=戦士のための哀歌 〜POWERFUL ENEMY!!〜
TTITLE15=てくてくあるく 〜Thank You Mix〜
EXTD=YEAR: 2005
EXTT0=
EXTT1=
EXTT2=
EXTT3=
EXTT4=
EXTT5=
EXTT6=
EXTT7=
EXTT8=
EXTT9=
EXTT10=
EXTT11=
EXTT12=
EXTT13=
EXTT14=
EXTT15=
PLAYORDER=
